<svg width="32" height="32" viewBox="0 0 32 32" fill="none" xmlns="http://www.w3.org/2000/svg">
<rect x="0.05" y="0.05" width="31.9" height="31.9" rx="1.95" fill="url(#paint0_linear_1349_918)" stroke="#A6DAFF" stroke-width="0.1"/>
<g clip-path="url(#clip0_1349_918)">
<path d="M21.5 6.47813C18.0969 4.51875 13.9031 4.51875 10.5 6.47813C7.09688 8.4375 5 12.0813 5 16C5 19.9188 7.09688 23.5625 10.5 25.5219C13.9031 27.4813 18.0969 27.4813 21.5 25.5219C24.9031 23.5625 27 19.9188 27 16C27 12.0813 24.9031 8.4375 21.5 6.47813ZM15.3469 10.8094C15.3469 10.5688 15.45 10.3969 15.5875 10.2594C15.725 10.1219 15.8969 10.0188 16.1375 10.0188C16.3781 10.0188 16.55 10.1219 16.6875 10.2594C16.825 10.3969 16.9281 10.6375 16.9281 10.8094V15.5875C16.9281 15.8281 16.825 16 16.6875 16.1375C16.5156 16.3094 16.3094 16.3781 16.1375 16.3781C15.8969 16.3781 15.725 16.275 15.5875 16.1375C15.45 16 15.3469 15.8281 15.3469 15.5875V10.8094ZM21.1219 18.5781C20.8469 19.2656 20.4344 19.85 19.9188 20.3656C19.4031 20.8813 18.8531 21.2938 18.1656 21.5688C17.4781 21.8438 16.7906 22.0156 16 22.0156C15.2781 22.0156 14.5219 21.8781 13.8344 21.5688C13.1469 21.2938 12.5969 20.8813 12.0813 20.3656C11.5656 19.85 11.2219 19.2656 10.8781 18.5781C10.6031 17.8906 10.4656 17.1688 10.4656 16.3781C10.4656 15.9313 10.5 15.5188 10.6031 15.1063C10.7062 14.6938 10.8438 14.2813 11.05 13.9031C11.2219 13.525 11.4625 13.1813 11.7375 12.8375C12.0125 12.5281 12.3219 12.1844 12.6656 11.9094C12.8375 11.7719 13.0437 11.7375 13.25 11.7719C13.4906 11.8063 13.6281 11.9094 13.7656 12.0813C13.9031 12.2531 13.9375 12.4594 13.9031 12.6656C13.8687 12.9063 13.7656 13.0781 13.5938 13.1813C13.0781 13.5594 12.6656 14.0406 12.3906 14.5906C12.1156 15.1406 11.9781 15.725 11.9781 16.3781C11.9781 16.9281 12.0813 17.4438 12.2875 17.925C12.4594 18.4406 12.8031 18.8531 13.1125 19.1969C13.4906 19.575 13.9031 19.85 14.35 20.0562C14.7969 20.2969 15.3469 20.3656 15.8625 20.3656C16.4125 20.3656 16.9281 20.2625 17.375 20.0562C17.8219 19.8156 18.3031 19.5406 18.6125 19.1969C18.9906 18.8187 19.2656 18.4063 19.4375 17.925C19.6781 17.4094 19.7469 16.9281 19.7469 16.3781C19.7469 15.725 19.6094 15.1063 19.3 14.5563C19.025 13.9719 18.6125 13.4906 18.0625 13.1469C17.8906 13.0094 17.7875 12.8719 17.7531 12.6313C17.7187 12.3906 17.7531 12.2188 17.8906 12.0469C17.9909 11.9215 18.0912 11.8328 18.2314 11.7805C18.3439 11.7387 18.4629 11.7154 18.5795 11.6873C18.8889 11.6125 19.085 11.6549 19.2313 11.7719C19.6094 12.0469 19.9188 12.3219 20.1938 12.7C20.4688 13.0094 20.7437 13.3875 20.9156 13.8C21.0875 14.2125 21.2937 14.625 21.3625 15.0375C21.4656 15.4844 21.5 15.8969 21.5 16.3781C21.5688 17.1344 21.4313 17.8906 21.1219 18.5781Z" fill="url(#paint1_linear_1349_918)"/>
</g>
<defs>
<linearGradient id="paint0_linear_1349_918" x1="0" y1="32" x2="0" y2="0" gradientUnits="userSpaceOnUse">
<stop stop-color="#122547"/>
<stop offset="1" stop-color="#122547" stop-opacity="0"/>
</linearGradient>
<linearGradient id="paint1_linear_1349_918" x1="5" y1="26.9914" x2="5" y2="5.00859" gradientUnits="userSpaceOnUse">
<stop stop-color="#0F36AE"/>
<stop offset="1" stop-color="#477DDD"/>
</linearGradient>
<clipPath id="clip0_1349_918">
<rect width="22" height="22" fill="white" transform="translate(5 5)"/>
</clipPath>
</defs>
</svg>
